<svg xmlns="http://www.w3.org/2000/svg" id="Capa_1" viewBox="0 0 926.4 299.2"><defs><style>      .st0 {        fill: #122d45;      }      .st1 {        fill: #fff;      }      .st2 {        fill: #ec694f;      }      .st3 {        fill: #004d71;      }      .st4 {        fill: #58c0d9;      }      .st5 {        fill: #f5f5f5;      }    </style></defs><path class="st5" d="M364.9,148.6c3.9,0,7.3.9,10.2,2.8,2.9,1.8,5.3,4.5,6.9,8h27.8c-2.3-10.6-7.4-19.1-15.3-25.3-7.9-6.2-17.7-9.3-29.3-9.3s-17.2,2-24.3,6c-7,4-12.5,9.6-16.3,16.8-3.8,7.2-5.7,15.3-5.7,24.5s1.9,17.4,5.7,24.6c3.8,7.2,9.3,12.8,16.3,16.8,7,4,15.1,6,24.3,6s21.4-3.1,29.3-9.3c7.9-6.2,13-14.6,15.3-25.3h-27.8c-1.7,3.5-4,6.2-6.9,8-2.9,1.8-6.4,2.8-10.2,2.8-6,0-10.8-2.1-14.3-6.4-3.6-4.3-5.3-10-5.3-17.2s1.8-12.8,5.3-17.1c3.6-4.3,8.3-6.4,14.3-6.4Z"></path><path class="st5" d="M448,157.8v-13.1h-25.9v74h25.9v-32.3c0-5.5,1.4-9.3,4.1-11.5,2.7-2.2,6.9-3.3,12.5-3.3h7.3v-27.6c-4.7,0-9.2,1.2-13.3,3.7-4.1,2.5-7.7,5.8-10.6,10Z"></path><path class="st5" d="M530.2,155.1c-2-3.4-4.9-6.2-8.6-8.2-3.7-2-8.1-3-13.2-3s-11.2,1.5-16,4.6c-4.8,3.1-8.6,7.5-11.3,13.2-2.8,5.7-4.2,12.4-4.2,20.1s1.4,14.4,4.2,20.1c2.8,5.8,6.6,10.2,11.3,13.3,4.8,3.1,10.1,4.6,16,4.6s9.4-1,13.1-3c3.7-2,6.6-4.7,8.6-8.2v10.3h25.9v-74h-25.9v10.3ZM526.3,193.1c-2.6,2.7-5.8,4.1-9.6,4.1s-7.1-1.4-9.6-4.2c-2.6-2.8-3.8-6.5-3.8-11.3s1.3-8.6,3.8-11.3c2.5-2.7,5.8-4,9.6-4s7,1.4,9.6,4.1c2.6,2.7,3.9,6.5,3.9,11.2s-1.3,8.6-3.9,11.3Z"></path><path class="st5" d="M601.4,138.6c1.3-1.3,3.4-1.9,6.2-1.9s2.2,0,2.9.1v-22c-1.1,0-2.8-.1-4.9-.1-10.5,0-18.5,2.5-24.1,7.6-5.6,5.1-8.4,12.3-8.4,21.8v.7h-8v21.5h8v52.5h26v-52.5h11.6v-21.5h-11.6c.2-2.8.9-4.9,2.2-6.1Z"></path><path class="st5" d="M651.5,195.4c-.9-.9-1.4-2.3-1.4-4.4v-24.8h13.5v-21.5h-13.5v-17.9h-26v17.9h-9.1v21.5h9.1v24.4c0,18.7,9.5,28.1,28.4,28.1h11.2v-22h-7.5c-2.2,0-3.8-.4-4.7-1.3Z"></path><path class="st5" d="M728.3,148.3c-5.6-3-12.1-4.5-19.4-4.5s-13.9,1.5-19.6,4.6c-5.7,3.1-10.1,7.5-13.3,13.1-3.2,5.7-4.7,12.4-4.7,20.1s1.6,14.5,4.8,20.2c3.2,5.7,7.7,10.1,13.3,13.2,5.7,3.1,12.2,4.6,19.5,4.6s11.6-1.1,16.6-3.4c5-2.3,9.2-5.4,12.5-9.4,3.3-4,5.5-8.6,6.7-13.7h-27.6c-1.8,3.9-4.9,5.8-9.2,5.8s-5.6-1-7.6-3c-2-2-3.1-5-3.4-9h48.9c.3-2,.4-4,.4-6.1,0-7.6-1.6-14.1-4.8-19.7-3.2-5.6-7.6-9.9-13.2-12.9ZM697,174.5c.6-3.3,1.9-5.9,4-7.6,2-1.7,4.6-2.6,7.8-2.6s5.8.9,7.9,2.7c2.1,1.8,3.2,4.3,3.2,7.5h-22.8Z"></path><path class="st5" d="M789.5,165.9c4.6,0,7.7,2.4,9.2,7.3h27.4c-1.8-9.2-6-16.4-12.4-21.6-6.4-5.1-14.3-7.7-23.7-7.7s-13.8,1.5-19.5,4.6c-5.7,3.1-10.1,7.5-13.3,13.2-3.2,5.7-4.7,12.4-4.7,20.1s1.6,14.5,4.7,20.2c3.2,5.7,7.6,10.1,13.3,13.2,5.7,3.1,12.2,4.6,19.5,4.6s17.3-2.6,23.7-7.8c6.4-5.2,10.6-12.4,12.4-21.5h-27.4c-1.5,4.8-4.6,7.3-9.2,7.3s-5.8-1.4-7.7-4.1c-1.9-2.7-2.8-6.7-2.8-11.9s.9-9.1,2.8-11.8c1.9-2.7,4.5-4,7.7-4Z"></path><path class="st5" d="M905.7,152.6c-5-5.7-11.7-8.5-20.1-8.5s-9.6,1-13.5,3.1c-3.9,2.1-7,4.8-9.3,8.1v-34.2h-25.9v97.6h25.9v-39.7c0-4.2,1.1-7.5,3.3-10,2.2-2.4,5.2-3.6,9.1-3.6s6.6,1.2,8.8,3.6c2.2,2.4,3.3,5.7,3.3,10v39.7h25.9v-43.1c0-9.7-2.5-17.3-7.5-23Z"></path><g><path class="st5" d="M281.4,61.8c1.7-4.3,1.9-8.1,1.1-11.5-3.8-16.8-23.2-24.4-27.1-25.8-4.9-1.7-10.2-.4-13.6,3.1-1.4,1.4-2.5,3-3.2,5-1.5,4.3-.7,8.8,1.8,12.2-2.8-1.3-6-1.7-9.1-.8-2.2.6-4.2,1.8-5.7,3.3-3.3,3.3-4.8,8.2-3.5,12.9,1,3.8,7.1,22.9,22.9,27.2,3.8,1,8.5.6,14-2.2,2.7,3.2,11.9,15.8,11.4,31.2-.2,4.6-1.3,9.4-3.3,14.4-6.6-2.7-14.8-4.9-22.4-6.5-18.8-3.8-38.1-4.6-53-2.1-7,1.2-13.7,4.3-19.5,9-27.8,22.8-34.2,31.1-41,40l-1.6,2.1c-1.2,1.6-2.2,3.4-2.8,5.3-21-.3-37-5.1-46.7-14.3-11.5-10.9-13.9-27-14.3-31.4,6.1-1.9,9.9-5,12-8.5,8.6-14.7-.9-33.2-2.9-36.8-2.5-4.5-7.2-7-12-7-2.3,0-4.5.6-6.7,1.7-3,1.7-5.1,4.3-6.2,7.2-.6-4.3-3.3-8.3-7.6-10.4-1.9-.9-4-1.4-6-1.4-5.1,0-9.9,2.8-12.3,7.7-1.9,3.8-10.7,23.7-1.2,38.8,1.9,3.1,4.8,5.8,9.2,7.7-.3,8.2.3,36.3,22.5,57.9,17,16.5,41.8,24.8,73.8,24.8.6,0,1.3,0,1.9,0,4.7,21.6,12.1,45.6,18.3,52.5,5.9,6.6,27.5,8.4,49.1,8.4s43.5-1.9,49.3-2.8c16.8-2.6,32.1-29.3,43.5-52.3.7-1.4,1.3-2.5,1.7-3.4,3.7-7.1-.2-31.7-5.2-51.8,11.5-15.9,17.5-32.1,17.9-48.5.6-29.8-17.9-49.5-23.7-54.9ZM246.6,49.3c4.1,1.5,8.9,4.6,10,6.5-.3.6-1,1.8-2.7,3.4-1,1-1.9,1.7-2.4,2.1-1.4-1.7-3.2-5.2-4-8.2-.4-1.6-1.2-3-2.1-4.3.4.2.8.3,1.2.5ZM48.7,97.3c.2-.4.4-.8.5-1.2.2,1.6.8,3.2,1.6,4.7,1.5,2.8,2.8,6.7,3,8.9-.7.1-1.8.3-3.3.3-2.4,0-3.9-.3-4.5-.6-.5-2.2.8-8,2.7-12.1Z"></path><g><g><g><g><path class="st0" d="M245.9,31.8c2-2,4.8-2.6,7.4-1.7,2.1.7,20.1,7.5,23.3,21.4.8,3.7.7,9.8-9.6,20-8,7.8-15.2,11.4-20.5,10-13-3.5-18.1-21-18.7-23-.7-2.5,0-5.2,1.9-7.1.9-.9,1.9-1.5,3.1-1.8,1.7-.5,3.4-.3,5,.4l1.6.8,1.1,1.5c.5.7.9,1.5,1.1,2.3h0s0,0,0,0c1.1,3.7,3.2,7.9,5.1,10.3h0c2,2.4,5.4,2.9,8,1.2h0c1-.7,2.2-1.6,3.3-2.8,1.8-1.8,3.2-3.6,3.9-5.1l1.4-3-1.8-2.8c-2.5-3.9-9.3-7.5-13.1-8.9-.3,0-.5-.2-.7-.3l-1.6-.8-.9-1.2c-1.5-2-2-4.7-1.2-7,.4-1,.9-1.9,1.7-2.6M241.7,27.5c-1.4,1.4-2.5,3-3.2,5-1.5,4.3-.7,8.8,1.8,12.2-2.8-1.3-6-1.7-9.1-.8-2.2.6-4.2,1.8-5.7,3.3-3.3,3.3-4.8,8.2-3.5,12.9,1,3.8,7.1,22.9,22.9,27.2,6.4,1.7,15.2-.6,26.3-11.5,11-10.9,12.8-19,11.3-25.6-3.8-16.8-23.2-24.4-27.1-25.8-4.9-1.7-10.2-.4-13.6,3.1h0ZM253.9,59.2c-1,1-1.9,1.7-2.4,2.1-1.4-1.7-3.2-5.2-4-8.2-.4-1.6-1.2-3-2.1-4.3.4.2.8.3,1.2.5,4.1,1.5,8.9,4.6,10,6.5-.3.6-1,1.8-2.7,3.4h0Z"></path><path class="st4" d="M245.9,31.8c2-2,4.8-2.6,7.4-1.7,2.1.7,20.1,7.5,23.3,21.4.8,3.7.7,9.8-9.6,20-8,7.8-15.2,11.4-20.5,10-13-3.5-18.1-21-18.7-23-.7-2.5,0-5.2,1.9-7.1.9-.9,1.9-1.5,3.1-1.8,1.7-.5,3.4-.3,5,.4l1.6.8,1.1,1.5c.5.7.9,1.5,1.1,2.3h0s0,0,0,0c1.1,3.7,3.2,7.9,5.1,10.3h0c2,2.4,5.4,2.9,8,1.2h0c1-.7,2.2-1.6,3.3-2.8,1.8-1.8,3.2-3.6,3.9-5.1h0c.9-1.9.7-4-.4-5.8h0c-2.5-3.9-9.3-7.5-13.1-8.9-.3,0-.5-.2-.7-.3l-1.6-.8-.9-1.2c-1.5-2-2-4.7-1.2-7,.4-1,.9-1.9,1.7-2.6"></path></g><g><path class="st0" d="M278.8,67.6c6.4,6.4,20.8,23.8,20.3,48.9-.5,21.1-11.2,42.3-32,62.8-6.1,6.1-13.2,12.1-21.1,18.1-5.1,3.9-12.3,3.2-16.2-1.5-3.7-4.6-3.4-11.2.8-15.3.4-.4.8-.7,1.2-1,7.2-5.4,13.7-11,19.2-16.4,16.3-16.1,24.8-31.8,25.3-46.7.5-16-7.9-28.9-11.9-34.1l1.9-1.6c1.5-1.3,3-2.6,4.4-4,1.9-1.9,3.7-3.9,5.4-6l2.6-3.2M278.4,58.7h0s-6.8,8.4-6.8,8.4c-1.6,1.9-3.2,3.8-5,5.5-1.3,1.3-2.7,2.5-4.1,3.7l-6.3,5.3s2,2.7,2,2.7c.9.9,12.7,14.7,12.1,32-.4,13.3-8.5,27.8-23.5,42.6-5.3,5.3-11.6,10.6-18.6,15.9-.6.5-1.2,1-1.8,1.5-6.3,6.2-7,16.3-1.2,23.3,6,7.3,16.9,8.2,24.4,2.5,8.1-6.1,15.3-12.3,21.7-18.6,22-21.7,33.3-44.1,33.8-66.9.7-34.2-23.9-55.1-25.3-56.3,0,0-1.3-1.7-1.4-1.6h0Z"></path><path class="st4" d="M278.8,67.6c6.4,6.4,20.8,23.8,20.3,48.9-.5,21.1-11.2,42.3-32,62.8-6.1,6.1-13.2,12.1-21.1,18.1-5.1,3.9-12.3,3.2-16.2-1.5-3.7-4.6-3.4-11.2.8-15.3.4-.4.8-.7,1.2-1,7.2-5.4,13.7-11,19.2-16.4,16.3-16.1,24.8-31.8,25.3-46.7.5-16-7.9-28.9-11.9-34.1l1.9-1.6c1.5-1.3,3-2.6,4.4-4,1.9-1.9,3.7-3.9,5.4-6l2.6-3.2"></path></g></g><g><path class="st3" d="M253.1,193.7c-7-.1-14.1-4-17.3-10.5-1.2-2.2-1.9-4.6-2.4-7,.3,2.5.6,5,1.6,7.4,2.2,6.2,7.8,10.9,14,12.8,1.3.4,2.5.7,4,.9v-3.6h.1Z"></path><path class="st3" d="M278.5,168.1c-7-.1-14.1-4-17.3-10.5-1.2-2.2-1.9-4.6-2.4-7,.3,2.5.6,5,1.6,7.4,2.2,6.2,7.8,10.9,14,12.8,1.3.4,2.5.7,4,.9v-3.6h.1Z"></path><path class="st0" d="M289.7,151.8c-6.9,1.2-14.6-1.2-19-6.9-1.6-1.9-2.7-4.1-3.7-6.4.8,2.4,1.6,4.8,3,6.9,3.4,5.6,9.7,9.2,16.2,9.9,1.3.2,2.6.2,4.1.1l-.6-3.6h0Z"></path><path class="st0" d="M296.9,132.8c-6.4,3-14.5,2.6-20.2-1.8-2.1-1.4-3.7-3.3-5.3-5.2,1.4,2.1,2.8,4.2,4.7,5.9,4.7,4.6,11.8,6.4,18.2,5.3,1.3-.2,2.6-.5,4-1l-1.5-3.3h0Z"></path><path class="st0" d="M300,111.5c-5.7,4.1-13.7,5.3-20.1,2-2.3-1-4.2-2.6-6.2-4.1,1.7,1.8,3.5,3.6,5.7,4.9,5.5,3.6,12.7,4,18.9,1.8,1.3-.4,2.4-.9,3.7-1.7l-2-3h0Z"></path><path class="st0" d="M294.9,90.5c-4.6,5.3-12.1,8.3-19.1,6.7-2.4-.4-4.7-1.5-6.9-2.6,2.1,1.4,4.3,2.7,6.7,3.5,6.2,2.2,13.3,1,18.8-2.6,1.1-.7,2.2-1.5,3.3-2.5l-2.7-2.4h0Z"></path><path class="st0" d="M283.2,71.8c-2.1,6.7-7.8,12.4-14.9,13.7-2.4.6-4.9.5-7.4.4,2.5.4,5,.8,7.5.5,6.6-.4,12.6-4.4,16.2-9.9.8-1.1,1.4-2.2,2-3.6l-3.4-1.1h0Z"></path></g></g><g><g><g><path class="st4" d="M210.7,128.1c28.8,0,58.1,9.4,61.2,13.8,2.2,3.1,6.8,17.4,10.6,36,3.8,18.7,4.6,30.5,3.7,34.6-38.7,14.6-73.1,5.4-78.7,3.7-16.8-26.5-15.5-71.8-14.5-86.6,5.7-1,11.7-1.4,17.7-1.4Z"></path><path class="st4" d="M133.3,184.6c-.1-2.5.7-4.9,2.2-6.9l1.6-2.1c6.8-8.9,12.6-16.5,39.8-38.7,3.3-2.7,7.1-4.8,11-6.1-1,16.2-1.8,58.2,13.9,85.5l-46.8,46.3c-.3-.2-.5-.4-.6-.5-6.7-7.4-19.9-53.5-21-77.5Z"></path><path class="st4" d="M246,265.3c-8.8,1.4-30.3,2.8-49.7,2.7-20.4-.1-30.9-1.8-36.4-3.3l44.8-44.3h.4c1,.5,15.1,5.2,35.9,5.2,12.2,0,26.8-1.7,42.2-6.9-6.4,12.8-22.7,44.3-37.1,46.5Z"></path></g><g><g><g><path class="st0" d="M36.4,83.9c1.1,0,2.2.2,3.2.7,2.3,1.1,3.9,3.4,4.3,6l.2,1.5-.6,1.8c0,.2-.2.5-.3.7-1.8,3.7-4.2,11.4-3.2,16.1l.7,3.4,3.2,1.2c1.7.6,4,.9,6.6.9s3.2-.1,4.5-.4h0c3.2-.6,5.3-3.5,5.1-6.7h0c-.3-3.2-1.8-7.9-3.7-11.4h0s0,0,0,0c-.4-.8-.7-1.7-.9-2.6l-.3-1.9.6-1.8c.6-1.7,1.8-3.1,3.4-4,1.1-.6,2.3-.9,3.6-.9,2.7,0,5.2,1.5,6.6,3.8,1,1.9,10,18.6,3,30.6-2.9,4.9-10.8,7.6-22.4,7.6s-19.7-4.4-21.7-7.8c-7.9-12.6.6-30.8,1.6-32.8,1.3-2.6,3.8-4.2,6.7-4.2M36.4,77.7c-5.1,0-9.9,2.8-12.3,7.7-1.9,3.8-10.7,23.7-1.2,38.8,3.8,6,10.9,10.7,27,10.7s24.3-4.7,27.8-10.6c8.6-14.7-.9-33.2-2.9-36.8-2.5-4.5-7.2-7-12-7-2.3,0-4.5.6-6.7,1.7-3,1.7-5.1,4.3-6.2,7.2-.6-4.3-3.3-8.3-7.6-10.4-1.9-.9-4-1.4-6-1.4h0ZM50.6,110c-2.4,0-3.9-.3-4.5-.6-.5-2.2.8-8,2.7-12.1.2-.4.4-.8.5-1.2.2,1.6.8,3.2,1.6,4.7,1.5,2.8,2.8,6.7,3,8.9-.7.1-1.8.3-3.3.3h0Z"></path><path class="st4" d="M36.4,83.9c1.1,0,2.2.2,3.2.7,2.3,1.1,3.9,3.4,4.3,6l.2,1.5-.6,1.8c0,.2-.2.5-.3.7-1.8,3.7-4.2,11.4-3.2,16.1h0c.5,2.1,1.9,3.8,4,4.5h0c1.7.6,4,.9,6.6.9s3.2-.1,4.5-.4h0c3.2-.6,5.3-3.5,5.1-6.7h0c-.3-3.2-1.8-7.9-3.7-11.4h0s0,0,0,0c-.4-.8-.7-1.7-.9-2.6l-.3-1.9.6-1.8c.6-1.7,1.8-3.1,3.4-4,1.1-.6,2.3-.9,3.6-.9,2.7,0,5.2,1.5,6.6,3.8,1,1.9,10,18.6,3,30.6-2.9,4.9-10.8,7.6-22.4,7.6s-19.7-4.4-21.7-7.8c-7.9-12.6.6-30.8,1.6-32.8,1.3-2.6,3.8-4.2,6.7-4.2"></path></g><g><path class="st0" d="M38.3,134.4l4.2.5c2.8.3,5.6.5,8.4.5s4.2,0,6.2-.3l2.6-.2c.8,6.7,4,22.4,16.1,33.8,11.2,10.6,29,16,52.7,16s16.9-.6,26.2-1.9c.5,0,1.1-.1,1.6-.1,6.1,0,11.2,4.6,11.8,10.7.6,6.2-4.3,12-10.8,12.9-10.1,1.3-19.8,2-28.8,2-30.4,0-53.7-7.8-69.5-23.1-18.7-18.2-20.7-41.6-20.7-50.9M32,127.5s.2,2.2.2,2.2c-.2,2-3.1,35.4,22.4,60.1,17,16.5,41.8,24.8,73.8,24.8,9.3,0,19.1-.7,29.6-2.1,9.7-1.3,17.2-9.9,16.2-19.7-.9-9.4-8.8-16.4-17.9-16.4s-1.6,0-2.4.2c-9.1,1.2-17.6,1.8-25.4,1.8-21.9,0-38.5-4.8-48.5-14.3-13-12.4-14.4-31.2-14.4-32.5,0,0-.4-3.5-.5-3.5l-8.6.7c-1.9.2-3.8.2-5.7.2s-5.1-.1-7.7-.4l-11.1-1.2h0Z"></path><path class="st4" d="M38.3,134.4l4.2.5c2.8.3,5.6.5,8.4.5s4.2,0,6.2-.3l2.6-.2c.8,6.7,4,22.4,16.1,33.8,11.2,10.6,29,16,52.7,16s16.9-.6,26.2-1.9c.5,0,1.1-.1,1.6-.1,6.1,0,11.2,4.6,11.8,10.7.6,6.2-4.3,12-10.8,12.9-10.1,1.3-19.8,2-28.8,2-30.4,0-53.7-7.8-69.5-23.1-18.7-18.2-20.7-41.6-20.7-50.9"></path></g></g><g><path class="st0" d="M149.2,208.8c5.1-5.2,7.5-13.3,5.2-20.4-.7-2.5-2-4.7-3.3-7,1.6,2.1,3.2,4.2,4.2,6.6,2.9,6.2,2.2,13.7-1,19.7-.7,1.2-1.3,2.4-2.3,3.6l-2.7-2.6h0Z"></path><path class="st0" d="M111.9,208.4c5.1-5.2,7.5-13.3,5.2-20.4-.7-2.5-2-4.7-3.3-7,1.6,2.1,3.2,4.2,4.2,6.6,2.9,6.2,2.2,13.7-1,19.7-.7,1.2-1.3,2.4-2.3,3.6l-2.7-2.6h0Z"></path><path class="st0" d="M91.7,204.5c6-4.1,9.9-11.6,9-19-.2-2.6-1-5-1.9-7.5,1.2,2.3,2.3,4.7,2.8,7.3,1.6,6.6-.5,13.9-4.8,19.1-.9,1.1-1.8,2.1-3,3.1l-2.2-3h0Z"></path><path class="st0" d="M72.5,195.8c6.9-2.4,12.6-8.6,13.6-16,.5-2.5.3-5.1.1-7.7.5,2.6,1,5.2.8,7.8-.1,6.8-4.1,13.3-9.6,17.2-1.1.8-2.2,1.5-3.7,2.2l-1.3-3.5h0Z"></path><path class="st0" d="M54.7,182.2c7.2-1.1,14-6.1,16.4-13.2,1-2.4,1.3-5,1.5-7.5,0,2.6,0,5.3-.6,7.8-1.4,6.7-6.5,12.3-12.6,15.1-1.3.6-2.5,1.1-4,1.5l-.6-3.7h0Z"></path><path class="st0" d="M43,163c7.3.6,15-2.7,19-9,1.5-2.1,2.4-4.5,3.2-7-.6,2.5-1.2,5.1-2.4,7.4-2.9,6.2-9.1,10.5-15.8,11.8-1.4.3-2.7.5-4.2.5l.2-3.7h0Z"></path><path class="st0" d="M38.1,140.7c6.4,3.5,14.9,3.5,21-.7,2.2-1.3,4-3.2,5.8-5.1-1.5,2.1-3.1,4.2-5.2,5.9-5.1,4.5-12.6,5.9-19.2,4.5-1.4-.3-2.6-.6-4.1-1.2l1.7-3.3h0Z"></path></g></g><path class="st0" d="M278,137.5c-4-5.7-19.9-10.6-33.3-13.4-18.8-3.8-38.1-4.6-53-2.1-7,1.2-13.7,4.3-19.5,9-27.8,22.8-34.2,31.1-41,40l-1.6,2.1c-2.6,3.4-3.9,7.5-3.7,11.7.9,20.7,13.3,71.6,22.9,82.2,5.9,6.6,27.5,8.4,49.1,8.4s43.5-1.9,49.3-2.8c16.8-2.6,32.1-29.3,43.5-52.3.7-1.4,1.3-2.5,1.7-3.4,6.1-11.7-8.4-70.9-14.4-79.4ZM210.7,128.1c28.8,0,58.1,9.4,61.2,13.8,2.2,3.1,6.8,17.4,10.6,36,3.8,18.7,4.6,30.5,3.7,34.6-38.7,14.6-73.1,5.4-78.7,3.7-16.8-26.5-15.5-71.8-14.5-86.6,5.7-1,11.7-1.4,17.7-1.4ZM133.3,184.6c-.1-2.5.7-4.9,2.2-6.9l1.6-2.1c6.8-8.9,12.6-16.5,39.8-38.7,3.3-2.7,7.1-4.8,11-6.1-1,16.2-1.8,58.2,13.9,85.5l-46.8,46.3c-.3-.2-.5-.4-.6-.5-6.7-7.4-19.9-53.5-21-77.5ZM246,265.3c-8.8,1.4-30.3,2.8-49.7,2.7-20.4-.1-30.9-1.8-36.4-3.3l44.8-44.3h.4c1,.5,15.1,5.2,35.9,5.2,12.2,0,26.8-1.7,42.2-6.9-6.4,12.8-22.7,44.3-37.1,46.5Z"></path></g><g><path class="st1" d="M243.7,200c-12.2,0-23.1-10-26-23.9-3.3-15.7,5-30.8,18.5-33.6,1.5-.3,3-.5,4.4-.5,12.2,0,23.1,10,26,23.9,1.6,7.7.5,15.4-3,21.8-3.5,6.3-9,10.5-15.5,11.9-1.5.3-3,.5-4.4.5Z"></path><path class="st0" d="M240.6,143.9h0c11.3,0,21.4,9.4,24.2,22.4,3.1,14.7-4.6,28.8-17,31.4-1.3.3-2.7.4-4.1.4-11.3,0-21.4-9.4-24.2-22.4-1.5-7.2-.5-14.5,2.8-20.5,3.2-5.8,8.3-9.7,14.2-10.9,1.3-.3,2.7-.4,4.1-.4M240.6,140.2c-1.6,0-3.2.2-4.8.5-14.5,3-23.4,19.1-19.9,35.8,3.1,14.9,15,25.3,27.8,25.3s3.2-.2,4.8-.5c14.5-3,23.4-19.1,19.9-35.8-3.1-14.9-15-25.3-27.8-25.3h0Z"></path></g><g><path class="st2" d="M244.5,191.5c-8.9,0-16.8-7.3-19-17.4-2.4-11.5,3.6-22.5,13.5-24.5,1.1-.2,2.2-.3,3.2-.3,8.9,0,16.8,7.3,19,17.4,2.4,11.5-3.6,22.5-13.5,24.5-1.1.2-2.2.3-3.2.3Z"></path><path class="st0" d="M242.3,150.5h0c8.3,0,15.7,6.9,17.7,16.4,1.1,5.3.4,10.6-2.1,15-2.4,4.3-6.1,7.1-10.5,8-1,.2-2,.3-3,.3-8.3,0-15.7-6.9-17.7-16.4-1.1-5.3-.4-10.6,2.1-15,2.4-4.3,6.1-7.1,10.5-8,1-.2,2-.3,3-.3M242.3,148c-1.2,0-2.3.1-3.5.4-10.5,2.2-17,13.8-14.4,26,2.3,10.8,10.9,18.4,20.2,18.4s2.3-.1,3.5-.4c10.5-2.2,17-13.8,14.4-26-2.3-10.8-10.9-18.4-20.2-18.4h0Z"></path></g></g></g></g><g><path class="st0" d="M324.7,147.6c3.8-7.2,9.3-12.7,16.3-16.8,7-4,15.1-6,24.3-6s21.4,3.1,29.3,9.3c7.9,6.2,13,14.6,15.3,25.3h-27.8c-1.7-3.5-4-6.2-6.9-8-2.9-1.8-6.4-2.8-10.2-2.8-6,0-10.8,2.1-14.3,6.4-3.6,4.3-5.3,10-5.3,17.1s1.8,12.9,5.3,17.2c3.6,4.3,8.3,6.4,14.3,6.4s7.3-.9,10.2-2.8c2.9-1.8,5.3-4.5,6.9-8h27.8c-2.3,10.6-7.4,19.1-15.3,25.3-7.9,6.2-17.7,9.3-29.3,9.3s-17.2-2-24.3-6c-7-4-12.5-9.6-16.3-16.8-3.8-7.2-5.7-15.4-5.7-24.6s1.9-17.3,5.7-24.5Z"></path><path class="st0" d="M458.5,147.8c4.1-2.5,8.6-3.7,13.3-3.7v27.6h-7.3c-5.6,0-9.8,1.1-12.5,3.3-2.7,2.2-4.1,6-4.1,11.5v32.3h-25.9v-74h25.9v13.1c2.9-4.2,6.4-7.6,10.6-10Z"></path><path class="st0" d="M481,161.7c2.8-5.7,6.6-10.1,11.3-13.2,4.8-3.1,10.1-4.6,16-4.6s9.5,1,13.2,3c3.7,2,6.6,4.7,8.6,8.2v-10.3h25.9v74h-25.9v-10.3c-2,3.4-4.9,6.2-8.6,8.2-3.7,2-8.1,3-13.1,3s-11.2-1.5-16-4.6c-4.8-3.1-8.6-7.5-11.3-13.3-2.8-5.8-4.2-12.5-4.2-20.1s1.4-14.3,4.2-20.1ZM526.3,170.5c-2.6-2.7-5.8-4.1-9.6-4.1s-7.1,1.3-9.6,4c-2.6,2.7-3.8,6.4-3.8,11.3s1.3,8.5,3.8,11.3c2.5,2.8,5.8,4.2,9.6,4.2s7-1.4,9.6-4.1c2.6-2.7,3.9-6.5,3.9-11.3s-1.3-8.5-3.9-11.2Z"></path><path class="st0" d="M610.8,166.3h-11.6v52.5h-26v-52.5h-8v-21.5h8v-.7c0-9.5,2.8-16.8,8.4-21.8,5.6-5.1,13.6-7.6,24.1-7.6s3.7,0,4.9.1v22c-.7,0-1.7-.1-2.9-.1-2.8,0-4.9.6-6.2,1.9-1.3,1.3-2.1,3.3-2.2,6.1h11.6v21.5Z"></path><path class="st0" d="M663.7,196.8v22h-11.2c-18.9,0-28.4-9.4-28.4-28.1v-24.4h-9.1v-21.5h9.1v-17.9h26v17.9h13.5v21.5h-13.5v24.8c0,2,.5,3.5,1.4,4.4.9.9,2.5,1.3,4.7,1.3h7.5Z"></path><path class="st0" d="M745.9,187h-48.9c.3,4,1.4,7.1,3.4,9,2,2,4.5,3,7.6,3s7.4-1.9,9.2-5.8h27.6c-1.1,5.1-3.4,9.7-6.7,13.7-3.3,4-7.5,7.1-12.5,9.4-5,2.3-10.6,3.4-16.6,3.4s-13.8-1.5-19.5-4.6c-5.7-3.1-10.1-7.5-13.3-13.2-3.2-5.7-4.8-12.4-4.8-20.2s1.6-14.4,4.7-20.1c3.2-5.7,7.6-10,13.3-13.1,5.7-3.1,12.2-4.6,19.6-4.6s13.8,1.5,19.4,4.5c5.6,3,10,7.3,13.2,12.9,3.2,5.6,4.7,12.2,4.7,19.7s-.1,4-.4,6.1ZM719.9,174.5c0-3.2-1.1-5.6-3.2-7.5-2.1-1.8-4.7-2.7-7.9-2.7s-5.8.9-7.8,2.6c-2,1.7-3.3,4.2-4,7.6h22.8Z"></path><path class="st0" d="M757.3,161.7c3.2-5.7,7.6-10.1,13.3-13.2,5.7-3.1,12.2-4.6,19.5-4.6s17.3,2.6,23.7,7.7c6.4,5.1,10.6,12.3,12.4,21.6h-27.4c-1.6-4.8-4.7-7.3-9.2-7.3s-5.8,1.3-7.7,4c-1.9,2.7-2.8,6.6-2.8,11.8s.9,9.2,2.8,11.9c1.9,2.7,4.5,4.1,7.7,4.1,4.7,0,7.7-2.4,9.2-7.3h27.4c-1.8,9.1-6,16.3-12.4,21.5-6.4,5.2-14.3,7.8-23.7,7.8s-13.8-1.5-19.5-4.6c-5.7-3.1-10.1-7.5-13.3-13.2-3.2-5.7-4.7-12.4-4.7-20.2s1.6-14.3,4.7-20.1Z"></path><path class="st0" d="M905.7,152.6c5,5.7,7.5,13.3,7.5,23v43.1h-25.9v-39.7c0-4.2-1.1-7.5-3.3-10-2.2-2.4-5.1-3.6-8.8-3.6s-6.9,1.2-9.1,3.6c-2.2,2.4-3.3,5.7-3.3,10v39.7h-25.9v-97.6h25.9v34.2c2.3-3.3,5.4-6,9.3-8.1,3.9-2.1,8.4-3.1,13.5-3.1,8.4,0,15.1,2.8,20.1,8.5Z"></path></g></svg>