<?xml version="1.0" encoding="utf-8"?>
<!-- Generator: Adobe Illustrator 28.0.0, SVG Export Plug-In . SVG Version: 6.00 Build 0)  -->
<svg version="1.1" id="Layer_1" xmlns="http://www.w3.org/2000/svg" xmlns:xlink="http://www.w3.org/1999/xlink" x="0px" y="0px"
	 viewBox="0 0 848.83 321.36" style="enable-background:new 0 0 848.83 321.36;" xml:space="preserve">
<g>
	<path d="M561.61,120.66h-12.39c-0.84,0-1.52,0.68-1.52,1.52v5.9c0,0.69-0.56,1.25-1.25,1.25c-0.35,0-0.68-0.15-0.91-0.4
		c-6.53-7.08-15.43-11.12-24.7-11.12c-23.64,0-42.88,19.26-42.88,42.91c0,23.65,19.24,42.9,42.88,42.9c9.27,0,18.17-4.03,24.7-11.11
		c0.24-0.26,0.56-0.4,0.91-0.4c0.69,0,1.25,0.56,1.25,1.25v5.85c0,0.84,0.68,1.52,1.52,1.52h12.39c0.84,0,1.52-0.68,1.52-1.52
		v-77.01C563.12,121.34,562.44,120.66,561.61,120.66z M520.84,186.37c-14.15,0-25.67-11.51-25.67-25.67s11.51-25.67,25.67-25.67
		c14.15,0,25.67,11.51,25.67,25.67S534.99,186.37,520.84,186.37z M406.5,160.64c-0.04,14.18,11.49,25.73,25.67,25.73
		c9.01,0,17.29-4.69,21.93-12.34c0.41-0.68,1.29-0.91,2-0.53l12.52,6.7c0.77,0.41,1.02,1.37,0.58,2.12
		c-7.69,13.16-21.73,21.28-37.04,21.28c-23.65,0-42.88-19.25-42.88-42.9s19.24-42.92,42.88-42.92c15.31,0,29.35,8.15,37.04,21.31
		c0.44,0.75,0.18,1.71-0.58,2.12l-12.52,6.7c-0.7,0.38-1.58,0.15-2-0.53c-5.26-8.65-15.18-13.52-25.53-12.09
		C416,137.03,406.53,147.96,406.5,160.64z M764.09,122.18v11.35c0,0.84-0.68,1.52-1.52,1.52H737.8v64.14c0,0.84-0.68,1.52-1.52,1.52
		H722.1c-0.84,0-1.52-0.68-1.52-1.52V90.38c0-0.84,0.68-1.52,1.52-1.52h14.18c0.84,0,1.52,0.68,1.52,1.52v30.28h24.77
		C763.41,120.66,764.09,121.34,764.09,122.18z M698.7,122.18v77.01c0,0.84-0.68,1.52-1.52,1.52H683c-0.84,0-1.52-0.68-1.52-1.52
		v-77.01c0-0.84,0.68-1.52,1.52-1.52h14.18C698.02,120.66,698.7,121.34,698.7,122.18z M386.73,198.87c0.58,0.75,0.05,1.84-0.9,1.84
		h-17.7c-0.94,0-1.83-0.44-2.41-1.19l-19.63-25.55c-0.68-0.88-2.14-0.88-2.82,0l-19.63,25.55c-0.57,0.75-1.46,1.19-2.41,1.19h-17.7
		c-0.95,0-1.48-1.09-0.9-1.84l28.93-37.06c0.5-0.64,0.5-1.54,0-2.19l-28.97-37.12c-0.58-0.75-0.05-1.84,0.9-1.84l17.71,0
		c0.94,0,1.83,0.44,2.41,1.19l19.67,25.59c0.68,0.88,2.14,0.88,2.82,0l19.66-25.59c0.57-0.75,1.46-1.19,2.41-1.19l17.7,0
		c0.95,0,1.48,1.09,0.9,1.84l-28.96,37.1c-0.5,0.64-0.5,1.54,0,2.19L386.73,198.87z M623.21,117.83c-9.27,0-18.17,4.01-24.7,11.09
		c-0.24,0.26-0.56,0.4-0.91,0.4c-0.69,0-1.25-0.56-1.25-1.25v-5.9c0-0.84-0.68-1.52-1.52-1.52h-12.39c-0.84,0-1.52,0.68-1.52,1.52
		v117.55c0,0.84,0.68,1.52,1.52,1.52h14.18c0.84,0,1.52-0.68,1.52-1.52v-43.47c0.07-0.52,0.41-0.95,0.9-1.14
		c0.49-0.19,1.05-0.08,1.45,0.27c6.5,5.61,14.52,8.23,22.71,8.23c23.64,0,42.87-19.25,42.88-42.9
		C666.09,137.06,646.86,117.83,623.21,117.83z M623.21,186.37c-14.15,0-25.66-11.51-25.66-25.67s11.51-25.67,25.67-25.67
		c14.15,0,25.67,11.51,25.67,25.67S637.36,186.37,623.21,186.37z M690.09,104.6c-6.74,0-12.21-5.47-12.21-12.21
		s5.47-12.21,12.21-12.21s12.21,5.47,12.21,12.21S696.83,104.6,690.09,104.6z"/>
	<g>
		<path d="M144.92,140.42l-31.2-31.2c-5.55-5.55-1.62-15.03,6.22-15.03h62.4c7.84,0,11.77,9.48,6.22,15.03l-31.2,31.2
			C153.93,143.86,148.36,143.86,144.92,140.42z"/>
		<path d="M157.37,180.94l31.2,31.2c5.55,5.55,1.62,15.03-6.22,15.03h-62.4c-7.84,0-11.77-9.48-6.22-15.03l31.2-31.2
			C148.36,177.5,153.93,177.5,157.37,180.94z"/>
		<path d="M171.4,154.46l31.2-31.2c5.55-5.55,15.03-1.62,15.03,6.22v62.4c0,7.84-9.48,11.77-15.03,6.22l-31.2-31.2
			C167.97,163.47,167.97,157.9,171.4,154.46z"/>
		<path d="M130.88,166.91l-31.2,31.2c-5.55,5.55-15.03,1.62-15.03-6.22v-62.4c0-7.84,9.48-11.77,15.03-6.22l31.2,31.2
			C134.32,157.9,134.32,163.47,130.88,166.91z"/>
	</g>
</g>
</svg>
